<svg width="63" height="16" viewBox="0 0 63 16" fill="none" xmlns="http://www.w3.org/2000/svg">
<path d="M1.49151 0.201922C1.13633 0.201922 0.835507 0.328774 0.589052 0.582477C0.335348 0.828932 0.208496 1.12975 0.208496 1.48494V14.5108C0.208496 14.866 0.335348 15.1668 0.589052 15.4133C0.835507 15.667 1.13633 15.7938 1.49151 15.7938H8.52636C8.88154 15.7938 9.18599 15.667 9.43969 15.4133C9.68614 15.1668 9.80937 14.866 9.80937 14.5108C9.80937 14.1556 9.68614 13.8548 9.43969 13.6084C9.18599 13.3546 8.88154 13.2278 8.52636 13.2278H2.77453V1.48494C2.77453 1.12975 2.64768 0.828932 2.39397 0.582477C2.14752 0.328774 1.8467 0.201922 1.49151 0.201922Z" fill="white"/>
<path d="M19.4537 2.74621C20.8962 2.74621 22.1321 3.25724 23.1614 4.2793C24.1835 5.30862 24.6945 6.54452 24.6945 7.987C24.6945 9.42949 24.1835 10.6618 23.1614 11.6838C22.1321 12.7131 20.8962 13.2278 19.4537 13.2278C18.0113 13.2278 16.779 12.7131 15.7569 11.6838C14.7276 10.6618 14.2129 9.42949 14.2129 7.987C14.2129 6.54452 14.7276 5.30862 15.7569 4.2793C16.779 3.25724 18.0113 2.74621 19.4537 2.74621ZM19.4537 15.7938C21.6066 15.7938 23.4478 15.0291 24.9772 13.4996C26.4995 11.9774 27.2606 10.1399 27.2606 7.987C27.2606 5.83414 26.4995 3.99298 24.9772 2.46351C23.4478 0.941287 21.6066 0.180176 19.4537 0.180176C17.3009 0.180176 15.4633 0.941287 13.9411 2.46351C12.4116 3.99298 11.6469 5.83414 11.6469 7.987C11.6469 10.1399 12.4116 11.9774 13.9411 13.4996C15.4633 15.0291 17.3009 15.7938 19.4537 15.7938Z" fill="white"/>
<path d="M37.9487 15.7503C39.2245 15.7503 40.4314 15.4531 41.5695 14.8587C41.6419 15.127 41.7905 15.348 42.0153 15.522C42.2472 15.7032 42.5082 15.7938 42.7981 15.7938H42.809C43.1642 15.7938 43.465 15.667 43.7114 15.4133C43.9651 15.1668 44.092 14.866 44.092 14.5108L44.1246 7.61732C44.1246 7.26213 43.9978 6.95769 43.7441 6.70399C43.4904 6.45028 43.1859 6.32343 42.8307 6.32343H37.2855C36.9231 6.32343 36.6186 6.45028 36.3722 6.70399C36.1185 6.95769 35.9916 7.26213 35.9916 7.61732C35.9916 7.97251 36.1185 8.27695 36.3722 8.53065C36.6186 8.77711 36.9231 8.90034 37.2855 8.90034H41.5368L41.526 11.7491C41.4897 11.7781 41.4644 11.7998 41.4499 11.8143C40.4568 12.7204 39.2897 13.1734 37.9487 13.1734C36.5135 13.1734 35.2849 12.666 34.2628 11.6512C33.248 10.6291 32.7406 9.40049 32.7406 7.96526C32.7406 6.53727 33.248 5.31224 34.2628 4.29018C35.2849 3.27536 36.5135 2.76795 37.9487 2.76795C39.123 2.76795 40.1777 3.12676 41.1128 3.84438C41.3955 4.06184 41.7144 4.1452 42.0696 4.09446C42.4176 4.05097 42.7003 3.88787 42.9177 3.60518C43.1352 3.32248 43.2222 3.00716 43.1787 2.65922C43.1279 2.30404 42.9612 2.01772 42.6785 1.80026C41.2868 0.727451 39.7102 0.191049 37.9487 0.191049C35.8031 0.191049 33.9692 0.95216 32.447 2.47438C30.9248 3.98936 30.1637 5.81965 30.1637 7.96526C30.1637 10.1109 30.9248 11.9448 32.447 13.467C33.9692 14.9892 35.8031 15.7503 37.9487 15.7503Z" fill="white"/>
<path d="M55.0085 2.74621C56.451 2.74621 57.6869 3.25724 58.7162 4.2793C59.7383 5.30862 60.2493 6.54452 60.2493 7.987C60.2493 9.42949 59.7383 10.6618 58.7162 11.6838C57.6869 12.7131 56.451 13.2278 55.0085 13.2278C53.566 13.2278 52.3337 12.7131 51.3117 11.6838C50.2824 10.6618 49.7677 9.42949 49.7677 7.987C49.7677 6.54452 50.2824 5.30862 51.3117 4.2793C52.3337 3.25724 53.566 2.74621 55.0085 2.74621ZM55.0085 15.7938C57.1614 15.7938 59.0025 15.0291 60.532 13.4996C62.0542 11.9774 62.8153 10.1399 62.8153 7.987C62.8153 5.83414 62.0542 3.99298 60.532 2.46351C59.0025 0.941287 57.1614 0.180176 55.0085 0.180176C52.8557 0.180176 51.0181 0.941287 49.4959 2.46351C47.9664 3.99298 47.2017 5.83414 47.2017 7.987C47.2017 10.1399 47.9664 11.9774 49.4959 13.4996C51.0181 15.0291 52.8557 15.7938 55.0085 15.7938Z" fill="white"/>
</svg>
