<svg width="68" height="17" viewBox="0 0 68 17" fill="none" xmlns="http://www.w3.org/2000/svg">
<path d="M1.57422 0.195312C1.19141 0.195312 0.867188 0.332031 0.601562 0.605469C0.328125 0.871094 0.191406 1.19531 0.191406 1.57812V15.6172C0.191406 16 0.328125 16.3242 0.601562 16.5898C0.867188 16.8633 1.19141 17 1.57422 17H9.15625C9.53906 17 9.86719 16.8633 10.1406 16.5898C10.4062 16.3242 10.5391 16 10.5391 15.6172C10.5391 15.2344 10.4062 14.9102 10.1406 14.6445C9.86719 14.3711 9.53906 14.2344 9.15625 14.2344H2.95703V1.57812C2.95703 1.19531 2.82031 0.871094 2.54688 0.605469C2.28125 0.332031 1.95703 0.195312 1.57422 0.195312Z" fill="white"/>
<path d="M20.9336 2.9375C22.4883 2.9375 23.8203 3.48828 24.9297 4.58984C26.0312 5.69922 26.582 7.03125 26.582 8.58594C26.582 10.1406 26.0312 11.4688 24.9297 12.5703C23.8203 13.6797 22.4883 14.2344 20.9336 14.2344C19.3789 14.2344 18.0508 13.6797 16.9492 12.5703C15.8398 11.4688 15.2852 10.1406 15.2852 8.58594C15.2852 7.03125 15.8398 5.69922 16.9492 4.58984C18.0508 3.48828 19.3789 2.9375 20.9336 2.9375ZM20.9336 17C23.2539 17 25.2383 16.1758 26.8867 14.5273C28.5273 12.8867 29.3477 10.9062 29.3477 8.58594C29.3477 6.26562 28.5273 4.28125 26.8867 2.63281C25.2383 0.992188 23.2539 0.171875 20.9336 0.171875C18.6133 0.171875 16.6328 0.992188 14.9922 2.63281C13.3438 4.28125 12.5195 6.26562 12.5195 8.58594C12.5195 10.9062 13.3438 12.8867 14.9922 14.5273C16.6328 16.1758 18.6133 17 20.9336 17Z" fill="white"/>
<path d="M40.8672 16.9531C42.2422 16.9531 43.543 16.6328 44.7695 15.9922C44.8477 16.2812 45.0078 16.5195 45.25 16.707C45.5 16.9023 45.7812 17 46.0938 17H46.1055C46.4883 17 46.8125 16.8633 47.0781 16.5898C47.3516 16.3242 47.4883 16 47.4883 15.6172L47.5234 8.1875C47.5234 7.80469 47.3867 7.47656 47.1133 7.20312C46.8398 6.92969 46.5117 6.79297 46.1289 6.79297H40.1523C39.7617 6.79297 39.4336 6.92969 39.168 7.20312C38.8945 7.47656 38.7578 7.80469 38.7578 8.1875C38.7578 8.57031 38.8945 8.89844 39.168 9.17188C39.4336 9.4375 39.7617 9.57031 40.1523 9.57031H44.7344L44.7227 12.6406C44.6836 12.6719 44.6562 12.6953 44.6406 12.7109C43.5703 13.6875 42.3125 14.1758 40.8672 14.1758C39.3203 14.1758 37.9961 13.6289 36.8945 12.5352C35.8008 11.4336 35.2539 10.1094 35.2539 8.5625C35.2539 7.02344 35.8008 5.70312 36.8945 4.60156C37.9961 3.50781 39.3203 2.96094 40.8672 2.96094C42.1328 2.96094 43.2695 3.34766 44.2773 4.12109C44.582 4.35547 44.9258 4.44531 45.3086 4.39062C45.6836 4.34375 45.9883 4.16797 46.2227 3.86328C46.457 3.55859 46.5508 3.21875 46.5039 2.84375C46.4492 2.46094 46.2695 2.15234 45.9648 1.91797C44.4648 0.761719 42.7656 0.183594 40.8672 0.183594C38.5547 0.183594 36.5781 1.00391 34.9375 2.64453C33.2969 4.27734 32.4766 6.25 32.4766 8.5625C32.4766 10.875 33.2969 12.8516 34.9375 14.4922C36.5781 16.1328 38.5547 16.9531 40.8672 16.9531Z" fill="white"/>
<path d="M59.2539 2.9375C60.8086 2.9375 62.1406 3.48828 63.25 4.58984C64.3516 5.69922 64.9023 7.03125 64.9023 8.58594C64.9023 10.1406 64.3516 11.4688 63.25 12.5703C62.1406 13.6797 60.8086 14.2344 59.2539 14.2344C57.6992 14.2344 56.3711 13.6797 55.2695 12.5703C54.1602 11.4688 53.6055 10.1406 53.6055 8.58594C53.6055 7.03125 54.1602 5.69922 55.2695 4.58984C56.3711 3.48828 57.6992 2.9375 59.2539 2.9375ZM59.2539 17C61.5742 17 63.5586 16.1758 65.207 14.5273C66.8477 12.8867 67.668 10.9062 67.668 8.58594C67.668 6.26562 66.8477 4.28125 65.207 2.63281C63.5586 0.992188 61.5742 0.171875 59.2539 0.171875C56.9336 0.171875 54.9531 0.992188 53.3125 2.63281C51.6641 4.28125 50.8398 6.26562 50.8398 8.58594C50.8398 10.9062 51.6641 12.8867 53.3125 14.5273C54.9531 16.1758 56.9336 17 59.2539 17Z" fill="white"/>
</svg>
